<svg width="89" height="57" viewBox="0 0 89 57" fill="none" xmlns="http://www.w3.org/2000/svg">
<path d="M12.65 16.175C12.3667 15.7083 11.975 15.35 11.475 15.1C10.9917 14.85 10.4167 14.725 9.75 14.725C8.51667 14.725 7.54167 15.125 6.825 15.925C6.125 16.725 5.775 17.8 5.775 19.15C5.775 20.6667 6.15 21.825 6.9 22.625C7.66667 23.4083 8.775 23.8 10.225 23.8C11.9417 23.8 13.1667 23.025 13.9 21.475H8.975V17.95H18.125V22.7C17.7417 23.6333 17.175 24.5083 16.425 25.325C15.6917 26.1417 14.7583 26.8167 13.625 27.35C12.4917 27.8667 11.2 28.125 9.75 28.125C7.98333 28.125 6.41667 27.75 5.05 27C3.7 26.2333 2.65 25.175 1.9 23.825C1.16667 22.4583 0.8 20.9 0.8 19.15C0.8 17.4167 1.16667 15.875 1.9 14.525C2.65 13.1583 3.7 12.1 5.05 11.35C6.4 10.5833 7.95833 10.2 9.725 10.2C11.9417 10.2 13.775 10.7333 15.225 11.8C16.675 12.8667 17.575 14.325 17.925 16.175H12.65ZM22.7959 12.675C21.9292 12.675 21.2292 12.4417 20.6959 11.975C20.1792 11.4917 19.9209 10.8917 19.9209 10.175C19.9209 9.44167 20.1792 8.83333 20.6959 8.35C21.2292 7.86667 21.9292 7.625 22.7959 7.625C23.6459 7.625 24.3292 7.86667 24.8459 8.35C25.3792 8.83333 25.6459 9.44167 25.6459 10.175C25.6459 10.8917 25.3792 11.4917 24.8459 11.975C24.3292 12.4417 23.6459 12.675 22.7959 12.675ZM25.2209 13.975V28H20.3209V13.975H25.2209ZM36.2863 23.825V28H34.1613C30.578 28 28.7863 26.225 28.7863 22.675V18.05H27.0613V13.975H28.7863V10.575H33.7113V13.975H36.2613V18.05H33.7113V22.75C33.7113 23.1333 33.7947 23.4083 33.9613 23.575C34.1447 23.7417 34.4447 23.825 34.8613 23.825H36.2863ZM47.7588 13.85C49.3588 13.85 50.6255 14.3917 51.5588 15.475C52.5088 16.5417 52.9838 17.9917 52.9838 19.825V28H48.0838V20.475C48.0838 19.675 47.8755 19.05 47.4588 18.6C47.0421 18.1333 46.4838 17.9 45.7838 17.9C45.0505 17.9 44.4755 18.1333 44.0588 18.6C43.6421 19.05 43.4338 19.675 43.4338 20.475V28H38.5338V9.5H43.4338V15.975C43.8671 15.3417 44.4505 14.8333 45.1838 14.45C45.9338 14.05 46.7921 13.85 47.7588 13.85ZM70.0225 13.975V28H65.0975V26C64.6808 26.6333 64.1058 27.15 63.3725 27.55C62.6391 27.9333 61.7975 28.125 60.8475 28.125C59.2141 28.125 57.9225 27.5917 56.9725 26.525C56.0391 25.4417 55.5725 23.975 55.5725 22.125V13.975H60.4475V21.5C60.4475 22.3 60.6558 22.9333 61.0725 23.4C61.5058 23.85 62.0725 24.075 62.7725 24.075C63.4891 24.075 64.0558 23.85 64.4725 23.4C64.8891 22.9333 65.0975 22.3 65.0975 21.5V13.975H70.0225ZM77.7111 15.925C78.0945 15.2583 78.6361 14.7417 79.3361 14.375C80.0361 13.9917 80.8611 13.8 81.8111 13.8C82.9278 13.8 83.9361 14.0917 84.8361 14.675C85.7528 15.2583 86.4695 16.0917 86.9861 17.175C87.5195 18.2583 87.7861 19.525 87.7861 20.975C87.7861 22.425 87.5195 23.7 86.9861 24.8C86.4695 25.8833 85.7528 26.7167 84.8361 27.3C83.9361 27.8833 82.9278 28.175 81.8111 28.175C80.8611 28.175 80.0361 27.9917 79.3361 27.625C78.6361 27.2417 78.0945 26.7167 77.7111 26.05V28H72.8111V9.5H77.7111V15.925ZM82.8111 20.975C82.8111 20.0583 82.5611 19.35 82.0611 18.85C81.5778 18.3333 80.9778 18.075 80.2611 18.075C79.5445 18.075 78.9361 18.3333 78.4361 18.85C77.9528 19.3667 77.7111 20.075 77.7111 20.975C77.7111 21.8917 77.9528 22.6083 78.4361 23.125C78.9361 23.6417 79.5445 23.9 80.2611 23.9C80.9778 23.9 81.5778 23.6417 82.0611 23.125C82.5611 22.5917 82.8111 21.875 82.8111 20.975Z" fill="black"/>
<path d="M0.6 39.975C0.6 38.525 0.9 37.2583 1.5 36.175C2.1 35.0917 2.93333 34.2583 4 33.675C5.08333 33.0917 6.31667 32.8 7.7 32.8C9.48333 32.8 10.9833 33.2917 12.2 34.275C13.4167 35.2417 14.2 36.6 14.55 38.35H9.35C9.05 37.4333 8.46667 36.975 7.6 36.975C6.98333 36.975 6.49167 37.2333 6.125 37.75C5.775 38.25 5.6 38.9917 5.6 39.975C5.6 40.9583 5.775 41.7083 6.125 42.225C6.49167 42.7417 6.98333 43 7.6 43C8.48333 43 9.06667 42.5417 9.35 41.625H14.55C14.2 43.3583 13.4167 44.7167 12.2 45.7C10.9833 46.6833 9.48333 47.175 7.7 47.175C6.31667 47.175 5.08333 46.8833 4 46.3C2.93333 45.7167 2.1 44.8833 1.5 43.8C0.9 42.7167 0.6 41.4417 0.6 39.975ZM23.1105 47.175C21.7105 47.175 20.4522 46.8833 19.3355 46.3C18.2355 45.7167 17.3689 44.8833 16.7355 43.8C16.1022 42.7167 15.7855 41.4417 15.7855 39.975C15.7855 38.525 16.1022 37.2583 16.7355 36.175C17.3855 35.0917 18.2605 34.2583 19.3605 33.675C20.4772 33.0917 21.7355 32.8 23.1355 32.8C24.5355 32.8 25.7855 33.0917 26.8855 33.675C28.0022 34.2583 28.8772 35.0917 29.5105 36.175C30.1605 37.2583 30.4855 38.525 30.4855 39.975C30.4855 41.425 30.1605 42.7 29.5105 43.8C28.8772 44.8833 28.0022 45.7167 26.8855 46.3C25.7689 46.8833 24.5105 47.175 23.1105 47.175ZM23.1105 42.925C23.7939 42.925 24.3605 42.675 24.8105 42.175C25.2772 41.6583 25.5105 40.925 25.5105 39.975C25.5105 39.025 25.2772 38.3 24.8105 37.8C24.3605 37.3 23.8022 37.05 23.1355 37.05C22.4689 37.05 21.9105 37.3 21.4605 37.8C21.0105 38.3 20.7855 39.025 20.7855 39.975C20.7855 40.9417 21.0022 41.675 21.4355 42.175C21.8689 42.675 22.4272 42.925 23.1105 42.925ZM53.2041 32.975L49.6291 47H44.1291L42.1791 38.5L40.1541 47H34.6791L31.1291 32.975H36.0041L37.5791 42.275L39.6541 32.975H44.9041L47.0541 42.3L48.6041 32.975H53.2041Z" fill="#FF44A9"/>
</svg>
