<svg width="237" height="149" viewBox="0 0 237 149" fill="none" xmlns="http://www.w3.org/2000/svg">
<path d="M47.2727 77.8V68.0112C41.7646 66.0644 37.8182 60.8112 37.8182 54.6364C37.8182 46.804 44.1674 40.4545 52 40.4545C59.8326 40.4545 66.1818 46.804 66.1818 54.6364H75.6364C75.6364 41.5824 65.0539 31 52 31C38.946 31 28.3636 41.5824 28.3636 54.6364C28.3636 63.1218 32.835 70.5628 39.5501 74.732L25.0305 102.011C24.5755 101.944 24.11 101.909 23.6364 101.909C18.4148 101.909 14.1818 106.142 14.1818 111.364C14.1818 116.585 18.4148 120.818 23.6364 120.818C27.5133 120.818 30.8452 118.485 32.3042 115.145H71.6957C73.1545 118.485 76.4868 120.818 80.3636 120.818C85.5854 120.818 89.8182 116.585 89.8182 111.364C89.8182 106.142 85.5854 101.909 80.3636 101.909C76.4868 101.909 73.1545 104.242 71.6957 107.582H32.3042C32.2799 107.526 32.255 107.471 32.2296 107.415L47.2727 77.8Z" fill="white"/>
<path d="M52 64.0909C46.7783 64.0909 42.5455 59.858 42.5455 54.6364C42.5455 49.4148 46.7783 45.1818 52 45.1818C57.2217 45.1818 61.4545 49.4148 61.4545 54.6364C61.4545 56.6941 60.797 58.5983 59.6809 60.1504L80.3636 87.7273C93.4175 87.7273 104 98.3097 104 111.364C104 124.418 93.4175 135 80.3636 135C70.6713 135 62.3414 129.166 58.6938 120.818H69.793C72.3897 123.72 76.1635 125.545 80.3636 125.545C88.1958 125.545 94.5455 119.196 94.5455 111.364C94.5455 103.531 88.1958 97.1818 80.3636 97.1818H75.6364L52 64.0909Z" fill="white"/>
<path d="M45.3062 120.818C41.6586 129.166 33.3288 135 23.6364 135C10.5824 135 0 124.418 0 111.364C0 98.3097 10.5824 87.7273 23.6364 87.7273V97.1818C15.804 97.1818 9.45455 103.531 9.45455 111.364C9.45455 119.196 15.804 125.545 23.6364 125.545C27.8365 125.545 31.6103 123.72 34.2071 120.818H45.3062Z" fill="white"/>
<path d="M141.725 40.4C144.575 40.4 147.05 40.975 149.15 42.125C151.3 43.275 152.95 44.825 154.1 46.775V40.925H168.8V82.55C168.8 86.5 168.05 90.05 166.55 93.2C165.05 96.4 162.7 98.95 159.5 100.85C156.35 102.75 152.35 103.7 147.5 103.7C141 103.7 135.8 102.175 131.9 99.125C128 96.075 125.775 91.925 125.225 86.675H139.7C140 88.025 140.75 89.075 141.95 89.825C143.15 90.575 144.7 90.95 146.6 90.95C151.6 90.95 154.1 88.15 154.1 82.55V77.15C152.95 79.1 151.3 80.65 149.15 81.8C147.05 82.95 144.575 83.525 141.725 83.525C138.375 83.525 135.325 82.65 132.575 80.9C129.875 79.15 127.725 76.65 126.125 73.4C124.575 70.1 123.8 66.275 123.8 61.925C123.8 57.575 124.575 53.775 126.125 50.525C127.725 47.275 129.875 44.775 132.575 43.025C135.325 41.275 138.375 40.4 141.725 40.4ZM154.1 61.925C154.1 59.225 153.35 57.1 151.85 55.55C150.4 54 148.6 53.225 146.45 53.225C144.25 53.225 142.425 54 140.975 55.55C139.525 57.05 138.8 59.175 138.8 61.925C138.8 64.625 139.525 66.775 140.975 68.375C142.425 69.925 144.25 70.7 146.45 70.7C148.6 70.7 150.4 69.925 151.85 68.375C153.35 66.825 154.1 64.675 154.1 61.925ZM184.602 37.025C182.002 37.025 179.902 36.325 178.302 34.925C176.752 33.475 175.977 31.675 175.977 29.525C175.977 27.325 176.752 25.5 178.302 24.05C179.902 22.6 182.002 21.875 184.602 21.875C187.152 21.875 189.202 22.6 190.752 24.05C192.352 25.5 193.152 27.325 193.152 29.525C193.152 31.675 192.352 33.475 190.752 34.925C189.202 36.325 187.152 37.025 184.602 37.025ZM191.877 40.925V83H177.177V40.925H191.877ZM225.073 70.475V83H218.698C207.948 83 202.573 77.675 202.573 67.025V53.15H197.398V40.925H202.573V30.725H217.348V40.925H224.998V53.15H217.348V67.25C217.348 68.4 217.598 69.225 218.098 69.725C218.648 70.225 219.548 70.475 220.798 70.475H225.073Z" fill="white"/>
<path d="M126.84 125.165C126.84 123.135 127.26 121.362 128.1 119.845C128.94 118.328 130.107 117.162 131.6 116.345C133.117 115.528 134.843 115.12 136.78 115.12C139.277 115.12 141.377 115.808 143.08 117.185C144.783 118.538 145.88 120.44 146.37 122.89H139.09C138.67 121.607 137.853 120.965 136.64 120.965C135.777 120.965 135.088 121.327 134.575 122.05C134.085 122.75 133.84 123.788 133.84 125.165C133.84 126.542 134.085 127.592 134.575 128.315C135.088 129.038 135.777 129.4 136.64 129.4C137.877 129.4 138.693 128.758 139.09 127.475H146.37C145.88 129.902 144.783 131.803 143.08 133.18C141.377 134.557 139.277 135.245 136.78 135.245C134.843 135.245 133.117 134.837 131.6 134.02C130.107 133.203 128.94 132.037 128.1 130.52C127.26 129.003 126.84 127.218 126.84 125.165ZM158.355 135.245C156.395 135.245 154.633 134.837 153.07 134.02C151.53 133.203 150.316 132.037 149.43 130.52C148.543 129.003 148.1 127.218 148.1 125.165C148.1 123.135 148.543 121.362 149.43 119.845C150.34 118.328 151.565 117.162 153.105 116.345C154.668 115.528 156.43 115.12 158.39 115.12C160.35 115.12 162.1 115.528 163.64 116.345C165.203 117.162 166.428 118.328 167.315 119.845C168.225 121.362 168.68 123.135 168.68 125.165C168.68 127.195 168.225 128.98 167.315 130.52C166.428 132.037 165.203 133.203 163.64 134.02C162.076 134.837 160.315 135.245 158.355 135.245ZM158.355 129.295C159.311 129.295 160.105 128.945 160.735 128.245C161.388 127.522 161.715 126.495 161.715 125.165C161.715 123.835 161.388 122.82 160.735 122.12C160.105 121.42 159.323 121.07 158.39 121.07C157.456 121.07 156.675 121.42 156.045 122.12C155.415 122.82 155.1 123.835 155.1 125.165C155.1 126.518 155.403 127.545 156.01 128.245C156.616 128.945 157.398 129.295 158.355 129.295ZM200.486 115.365L195.481 135H187.781L185.051 123.1L182.216 135H174.551L169.581 115.365H176.406L178.611 128.385L181.516 115.365H188.866L191.876 128.42L194.046 115.365H200.486Z" fill="#EC4899"/>
</svg>
