<svg width="189" height="61" viewBox="0 0 189 61" fill="none" xmlns="http://www.w3.org/2000/svg">
<rect x="4" y="7" width="46" height="46" rx="11" stroke="url(#paint0_linear_307_345)" stroke-width="8"/>
<path d="M75.5619 48V10.9H81.8119V48H75.5619ZM101.815 48.35C99.5484 48.35 97.5484 47.9333 95.815 47.1C94.0817 46.2333 92.7317 44.9333 91.765 43.2C90.7984 41.4333 90.315 39.2167 90.315 36.55V21.3H96.565V35.7C96.565 38.1 97.0984 39.9 98.165 41.1C99.265 42.2667 100.815 42.85 102.815 42.85C104.282 42.85 105.548 42.55 106.615 41.95C107.715 41.35 108.565 40.45 109.165 39.25C109.798 38.05 110.115 36.5667 110.115 34.8V21.3H116.365V48H110.415V40.8L111.465 43C110.565 44.7333 109.248 46.0667 107.515 47C105.782 47.9 103.882 48.35 101.815 48.35ZM158.748 21C160.882 21 162.765 21.4167 164.398 22.25C166.065 23.0833 167.365 24.3667 168.298 26.1C169.232 27.8 169.698 30 169.698 32.7V48H163.448V33.5C163.448 31.1333 162.932 29.3667 161.898 28.2C160.865 27.0333 159.382 26.45 157.448 26.45C156.082 26.45 154.865 26.75 153.798 27.35C152.765 27.95 151.948 28.8333 151.348 30C150.782 31.1667 150.498 32.65 150.498 34.45V48H144.248V33.5C144.248 31.1333 143.732 29.3667 142.698 28.2C141.665 27.0333 140.182 26.45 138.248 26.45C136.882 26.45 135.665 26.75 134.598 27.35C133.565 27.95 132.748 28.8333 132.148 30C131.582 31.1667 131.298 32.65 131.298 34.45V48H125.048V21.3H130.998V28.4L129.948 26.3C130.848 24.5667 132.148 23.25 133.848 22.35C135.582 21.45 137.548 21 139.748 21C142.248 21 144.415 21.6167 146.248 22.85C148.115 24.0833 149.348 25.95 149.948 28.45L147.498 27.6C148.365 25.6 149.798 24 151.798 22.8C153.798 21.6 156.115 21 158.748 21ZM178.185 48V21.3H184.435V48H178.185ZM181.335 16.9C180.168 16.9 179.202 16.5333 178.435 15.8C177.702 15.0667 177.335 14.1833 177.335 13.15C177.335 12.0833 177.702 11.2 178.435 10.5C179.202 9.76667 180.168 9.4 181.335 9.4C182.502 9.4 183.452 9.75 184.185 10.45C184.952 11.1167 185.335 11.9667 185.335 13C185.335 14.1 184.968 15.0333 184.235 15.8C183.502 16.5333 182.535 16.9 181.335 16.9Z" fill="#131313"/>
<defs>
<linearGradient id="paint0_linear_307_345" x1="27" y1="3" x2="27" y2="57" gradientUnits="userSpaceOnUse">
<stop stop-color="#8276FF"/>
<stop offset="1" stop-color="#4B4EE7"/>
</linearGradient>
</defs>
</svg>
