<svg width="145" height="72" viewBox="0 0 145 72" fill="none" xmlns="http://www.w3.org/2000/svg">
<path d="M70.84 48.165C70.84 46.135 71.26 44.3617 72.1 42.845C72.94 41.3283 74.1067 40.1617 75.6 39.345C77.1167 38.5283 78.8433 38.12 80.78 38.12C83.2767 38.12 85.3767 38.8083 87.08 40.185C88.7833 41.5383 89.88 43.44 90.37 45.89H83.09C82.67 44.6067 81.8533 43.965 80.64 43.965C79.7767 43.965 79.0883 44.3267 78.575 45.05C78.085 45.75 77.84 46.7883 77.84 48.165C77.84 49.5417 78.085 50.5917 78.575 51.315C79.0883 52.0383 79.7767 52.4 80.64 52.4C81.8767 52.4 82.6933 51.7583 83.09 50.475H90.37C89.88 52.9017 88.7833 54.8033 87.08 56.18C85.3767 57.5567 83.2767 58.245 80.78 58.245C78.8433 58.245 77.1167 57.8367 75.6 57.02C74.1067 56.2033 72.94 55.0367 72.1 53.52C71.26 52.0033 70.84 50.2183 70.84 48.165ZM102.355 58.245C100.395 58.245 98.6331 57.8367 97.0698 57.02C95.5298 56.2033 94.3164 55.0367 93.4298 53.52C92.5431 52.0033 92.0998 50.2183 92.0998 48.165C92.0998 46.135 92.5431 44.3617 93.4298 42.845C94.3398 41.3283 95.5648 40.1617 97.1048 39.345C98.6681 38.5283 100.43 38.12 102.39 38.12C104.35 38.12 106.1 38.5283 107.64 39.345C109.203 40.1617 110.428 41.3283 111.315 42.845C112.225 44.3617 112.68 46.135 112.68 48.165C112.68 50.195 112.225 51.98 111.315 53.52C110.428 55.0367 109.203 56.2033 107.64 57.02C106.076 57.8367 104.315 58.245 102.355 58.245ZM102.355 52.295C103.311 52.295 104.105 51.945 104.735 51.245C105.388 50.5217 105.715 49.495 105.715 48.165C105.715 46.835 105.388 45.82 104.735 45.12C104.105 44.42 103.323 44.07 102.39 44.07C101.456 44.07 100.675 44.42 100.045 45.12C99.4148 45.82 99.0998 46.835 99.0998 48.165C99.0998 49.5183 99.4031 50.545 100.01 51.245C100.616 51.945 101.398 52.295 102.355 52.295ZM144.486 38.365L139.481 58H131.781L129.051 46.1L126.216 58H118.551L113.581 38.365H120.406L122.611 51.385L125.516 38.365H132.866L135.876 51.42L138.046 38.365H144.486Z" fill="#EC4899"/>
<path d="M78.575 13.8C79.525 13.8 80.35 13.9917 81.05 14.375C81.7667 14.7583 82.3167 15.275 82.7 15.925V13.975H87.6V27.85C87.6 29.1667 87.35 30.35 86.85 31.4C86.35 32.4667 85.5667 33.3167 84.5 33.95C83.45 34.5833 82.1167 34.9 80.5 34.9C78.3333 34.9 76.6 34.3917 75.3 33.375C74 32.3583 73.2583 30.975 73.075 29.225H77.9C78 29.675 78.25 30.025 78.65 30.275C79.05 30.525 79.5667 30.65 80.2 30.65C81.8667 30.65 82.7 29.7167 82.7 27.85V26.05C82.3167 26.7 81.7667 27.2167 81.05 27.6C80.35 27.9833 79.525 28.175 78.575 28.175C77.4583 28.175 76.4417 27.8833 75.525 27.3C74.625 26.7167 73.9083 25.8833 73.375 24.8C72.8583 23.7 72.6 22.425 72.6 20.975C72.6 19.525 72.8583 18.2583 73.375 17.175C73.9083 16.0917 74.625 15.2583 75.525 14.675C76.4417 14.0917 77.4583 13.8 78.575 13.8ZM82.7 20.975C82.7 20.075 82.45 19.3667 81.95 18.85C81.4667 18.3333 80.8667 18.075 80.15 18.075C79.4167 18.075 78.8083 18.3333 78.325 18.85C77.8417 19.35 77.6 20.0583 77.6 20.975C77.6 21.875 77.8417 22.5917 78.325 23.125C78.8083 23.6417 79.4167 23.9 80.15 23.9C80.8667 23.9 81.4667 23.6417 81.95 23.125C82.45 22.6083 82.7 21.8917 82.7 20.975ZM92.8672 12.675C92.0005 12.675 91.3005 12.4417 90.7672 11.975C90.2505 11.4917 89.9922 10.8917 89.9922 10.175C89.9922 9.44167 90.2505 8.83333 90.7672 8.35C91.3005 7.86667 92.0005 7.625 92.8672 7.625C93.7172 7.625 94.4005 7.86667 94.9172 8.35C95.4505 8.83333 95.7172 9.44167 95.7172 10.175C95.7172 10.8917 95.4505 11.4917 94.9172 11.975C94.4005 12.4417 93.7172 12.675 92.8672 12.675ZM95.2922 13.975V28H90.3922V13.975H95.2922ZM106.358 23.825V28H104.233C100.649 28 98.8576 26.225 98.8576 22.675V18.05H97.1326V13.975H98.8576V10.575H103.783V13.975H106.333V18.05H103.783V22.75C103.783 23.1333 103.866 23.4083 104.033 23.575C104.216 23.7417 104.516 23.825 104.933 23.825H106.358Z" fill="#0B0B0B"/>
<path d="M29.0909 34.8V28.7761C25.7013 27.5781 23.2727 24.3454 23.2727 20.5455C23.2727 15.7255 27.1799 11.8182 32 11.8182C36.8201 11.8182 40.7273 15.7255 40.7273 20.5455H46.5455C46.5455 12.5122 40.0332 6 32 6C23.9668 6 17.4545 12.5122 17.4545 20.5455C17.4545 25.7672 20.2062 30.3464 24.3385 32.912L15.4034 49.6992C15.1234 49.6579 14.8369 49.6364 14.5455 49.6364C11.3322 49.6364 8.72727 52.2412 8.72727 55.4545C8.72727 58.6679 11.3322 61.2727 14.5455 61.2727C16.9313 61.2727 18.9817 59.8368 19.8795 57.7818H44.1204C45.0182 59.8368 47.0688 61.2727 49.4545 61.2727C52.6679 61.2727 55.2727 58.6679 55.2727 55.4545C55.2727 52.2412 52.6679 49.6364 49.4545 49.6364C47.0688 49.6364 45.0182 51.0723 44.1204 53.1273H19.8795C19.8646 53.0929 19.8493 53.0589 19.8336 53.0249L29.0909 34.8Z" fill="#151515"/>
<path d="M32 26.3636C28.7866 26.3636 26.1818 23.7587 26.1818 20.5455C26.1818 17.3322 28.7866 14.7273 32 14.7273C35.2134 14.7273 37.8182 17.3322 37.8182 20.5455C37.8182 21.8118 37.4135 22.9836 36.7267 23.9387L49.4545 40.9091C57.4877 40.9091 64 47.4214 64 55.4545C64 63.4877 57.4877 70 49.4545 70C43.49 70 38.3639 66.4099 36.1193 61.2727H42.9495C44.5475 63.0583 46.8698 64.1818 49.4545 64.1818C54.2743 64.1818 58.1818 60.2746 58.1818 55.4545C58.1818 50.6345 54.2743 46.7273 49.4545 46.7273H46.5455L32 26.3636Z" fill="#151515"/>
<path d="M27.8807 61.2727C25.6361 66.4099 20.51 70 14.5455 70C6.51223 70 0 63.4877 0 55.4545C0 47.4214 6.51223 40.9091 14.5455 40.9091V46.7273C9.72553 46.7273 5.81818 50.6345 5.81818 55.4545C5.81818 60.2746 9.72553 64.1818 14.5455 64.1818C17.1302 64.1818 19.4525 63.0583 21.0505 61.2727H27.8807Z" fill="#151515"/>
</svg>
